<svg width="1024" height="1024" viewBox="0 0 1024 1024" fill="none" xmlns="http://www.w3.org/2000/svg">
<path d="M392.641 683.6C381.361 683.6 374.037 677.447 370.229 663.531L352.211 597.174C346.352 575.494 366.566 562.75 366.566 522.613C366.566 517.779 366.566 510.309 366.859 500.055C367.006 492.584 364.369 489.215 357.045 485.406C335.219 474.859 321.303 452.447 321.303 424.469C321.303 383.893 352.504 355.328 397.182 355.328C411.537 355.328 427.65 358.404 444.643 365.143C458.412 370.855 451.088 390.631 436.439 384.625C421.791 378.766 409.34 376.275 397.182 376.275C364.955 376.275 342.25 396.051 342.25 424.469C342.25 443.072 351.479 458.16 366.42 465.631C372.279 469 377.846 469.732 382.533 463.58C392.787 450.104 409.926 439.996 438.051 439.996C490.785 439.996 511.439 447.76 563.734 447.76C568.715 447.76 571.645 444.83 574.867 438.971L582.191 426.227C589.516 413.336 600.941 398.248 611.635 389.02C617.934 372.467 628.92 359.723 638.588 359.723C647.963 359.723 661.439 372.467 665.834 391.949C684.145 402.643 701.723 423.883 701.723 441.314C701.723 456.402 682.973 474.273 657.924 477.789C654.701 575.494 601.527 554.4 601.527 622.662V633.795C611.488 636.139 619.838 642.73 619.838 657.525C619.838 672.906 607.68 683.6 590.834 683.6H572.67C552.895 683.6 541.908 672.174 541.908 651.959C541.908 633.648 543.812 624.127 543.812 605.523C543.812 603.326 541.908 596.148 540.15 588.238C524.037 591.9 503.822 593.951 485.365 593.951C465.443 593.951 442.299 589.996 426.771 583.551C423.842 591.461 422.377 599.957 422.377 613.873V633.795C432.338 636.139 440.688 642.73 440.688 657.525C440.688 673.492 429.262 683.6 411.684 683.6H392.641ZM398.5 662.799H410.512C416.811 662.799 419.887 660.455 419.887 655.328C419.887 650.787 416.957 647.857 410.658 647.857H407.289C403.773 647.857 401.576 645.66 401.576 642.145V603.473C401.576 587.799 404.945 579.303 412.123 566.852C418.275 556.158 423.402 547.955 428.383 537.115C434.682 523.785 452.406 531.988 448.158 544C446.4 548.98 442.006 556.891 436.586 565.24C448.451 569.781 467.348 573.15 485.365 573.15C503.969 573.15 523.891 570.953 537.221 567.73C537.221 558.941 540.59 549.566 544.252 540.191C549.525 527.447 568.422 535.357 563.441 547.369C560.365 554.84 557.729 561.725 557.729 565.826C557.729 576.227 564.613 597.613 564.613 605.523C564.613 627.789 562.709 637.311 562.709 650.494C562.709 658.404 566.957 662.799 575.014 662.799H589.516C595.961 662.799 599.037 660.309 599.037 655.328C599.037 650.494 596.107 647.857 589.809 647.857H586.439C582.924 647.857 580.727 645.66 580.727 642.145V622.662C580.727 531.256 637.27 559.381 637.27 470.025V467.828C637.27 461.822 640.492 458.6 646.059 458.6H647.816C667.445 458.6 680.922 447.32 680.922 440.582C680.922 430.768 665.541 413.043 648.256 402.936C645.18 388.58 639.906 381.695 638.148 381.402C635.219 381.695 632.143 386.969 624.672 403.961C617.348 409.088 608.998 421.393 600.795 436.041L592.738 450.25C586.293 461.822 577.064 468.561 567.982 468.561C523.305 468.561 485.072 460.797 438.051 460.797C388.1 460.797 387.221 503.57 387.221 522.613C387.221 569.635 369.643 581.646 372.426 591.607L389.125 652.691C391.029 660.016 393.959 662.799 398.5 662.799ZM649.574 436.48C644.594 436.48 640.492 432.672 640.492 427.545C640.492 422.711 644.594 418.609 649.574 418.609C654.408 418.609 658.51 422.711 658.51 427.545C658.51 432.672 654.408 436.48 649.574 436.48Z" fill="white" style="fill:white;fill-opacity:1;"/>
</svg>
