<?xml version="1.0" encoding="UTF-8"?>
<svg width="44" height="44" viewBox="0 0 44 44" xmlns="http://www.w3.org/2000/svg" role="img" aria-labelledby="title desc">
  <title id="title">Cat Keyboard Lock Menu Icon</title>
  <desc id="desc">A monochrome template status bar icon combining a cat face, keyboard, and lock.</desc>
  <g fill="currentColor">
    <path d="M14.2 10.5V5.6c0-1.6 1.9-2.5 3.1-1.5l4.7 3.8 4.7-3.8c1.2-1 3.1-.1 3.1 1.5v4.9c3.6 2.4 5.9 6.4 5.9 11v1.2c0 2.7-.8 5.2-2.2 7.3h-4.8c2-1.7 3.3-4.3 3.3-7.3v-1.2c0-5.1-4-9.3-9-9.6l-1-.1-1 .1c-5 .3-9 4.5-9 9.6v1.2c0 3 1.3 5.6 3.3 7.3h-4.8a13 13 0 0 1-2.2-7.3v-1.2c0-4.6 2.3-8.6 5.9-11Zm3.8-1.1 1.6-1.3-1.6-1.2v2.5Zm8 0V6.9l-1.6 1.2L26 9.4Z"/>
    <path d="M16 20.3a2.2 2.2 0 1 0 0-4.4 2.2 2.2 0 0 0 0 4.4Zm12 0a2.2 2.2 0 1 0 0-4.4 2.2 2.2 0 0 0 0 4.4Z"/>
    <path d="M20.7 24.3c.7-.7 1.9-.7 2.6 0l1.5 1.5c.8.8.2 2.2-.9 2.2h-3.8c-1.1 0-1.7-1.4-.9-2.2l1.5-1.5Z"/>
    <path d="M10 31h13.5a7.3 7.3 0 0 0-.5 2.8V36H10a2 2 0 0 1-2-2v-1a2 2 0 0 1 2-2Zm2 7h12.6c.8 1.8 2.6 3 4.7 3H12a2 2 0 0 1 0-4Z"/>
    <path d="M30 29.5c0-2.5 1.8-4.5 4.2-4.5s4.2 2 4.2 4.5V31h.3c1.8 0 3.3 1.5 3.3 3.3v3.4c0 1.8-1.5 3.3-3.3 3.3h-9.4c-1.8 0-3.3-1.5-3.3-3.3v-3.4c0-1.8 1.5-3.3 3.3-3.3h.7v-1.5Zm2.8 1.5h2.8v-1.5c0-.9-.5-1.7-1.4-1.7s-1.4.8-1.4 1.7V31Zm1.4 3.4a1.4 1.4 0 0 0-.7 2.6v1.2h1.4V37a1.4 1.4 0 0 0-.7-2.6Z"/>
  </g>
</svg>
